# xmcd
#
# Track frame offsets:
#	150
#	15414
#	36332
#	54977
#	71434
#	83436
#	101360
#	123007
#	142859
#	158815
#
# Disc length: 2416 seconds
#
# Revision: 1
# Processed by: cddbd v1.5.2PL0 Copyright (c) Steve Scherf et al.
# Submitted via: audiograbber 1.83.01
#
DISCID=69096e0a
DTITLE=Sime Nugent - Ten Years at the Table
DYEAR=2010
DGENRE=Acoustic
TTITLE0=Somewhere By Now
TTITLE1=Gentle As She Goes
TTITLE2=Slow Road
TTITLE3=Only One Water
TTITLE4=Company We Keep
TTITLE5=The Cleaner
TTITLE6=The Funeral
TTITLE7=My Walking Stick
TTITLE8=Happy Man
TTITLE9=Any Day
EXTD=
EXTT0=
EXTT1=
EXTT2=
EXTT3=
EXTT4=
EXTT5=
EXTT6=
EXTT7=
EXTT8=
EXTT9=
PLAYORDER=
